<?xml version="1.0" encoding="UTF-8" standalone="no"?>
<!-- Created with Inkscape (http://www.inkscape.org/) -->
<svg
   xmlns:dc="http://purl.org/dc/elements/1.1/"
   xmlns:cc="http://creativecommons.org/ns#"
   xmlns:rdf="http://www.w3.org/1999/02/22-rdf-syntax-ns#"
   xmlns:svg="http://www.w3.org/2000/svg"
   xmlns="http://www.w3.org/2000/svg"
   xmlns:sodipodi="http://sodipodi.sourceforge.net/DTD/sodipodi-0.dtd"
   xmlns:inkscape="http://www.inkscape.org/namespaces/inkscape"
   id="svg2383"
   sodipodi:version="0.32"
   inkscape:version="0.46"
   width="2929"
   height="579"
   version="1.0"
   sodipodi:docname="Polaroid logo.svg"
   inkscape:output_extension="org.inkscape.output.svg.inkscape">
  <metadata
     id="metadata2388">
    <rdf:RDF>
      <cc:Work
         rdf:about="">
        <dc:format>image/svg+xml</dc:format>
        <dc:type
           rdf:resource="http://purl.org/dc/dcmitype/StillImage" />
      </cc:Work>
    </rdf:RDF>
  </metadata>
  <defs
     id="defs2386">
    <inkscape:perspective
       sodipodi:type="inkscape:persp3d"
       inkscape:vp_x="0 : 526.18109 : 1"
       inkscape:vp_y="0 : 1000 : 0"
       inkscape:vp_z="744.09448 : 526.18109 : 1"
       inkscape:persp3d-origin="372.04724 : 350.78739 : 1"
       id="perspective2390" />
  </defs>
  <sodipodi:namedview
     inkscape:window-height="750"
     inkscape:window-width="1280"
     inkscape:pageshadow="2"
     inkscape:pageopacity="0.0"
     guidetolerance="10.0"
     gridtolerance="10.0"
     objecttolerance="10.0"
     borderopacity="1.0"
     bordercolor="#666666"
     pagecolor="#ffffff"
     id="base"
     showgrid="false"
     inkscape:zoom="0.18572892"
     inkscape:cx="1464.5"
     inkscape:cy="289.5"
     inkscape:window-x="-8"
     inkscape:window-y="-8"
     inkscape:current-layer="svg2383" />
  <path
     id="path2414"
     d="M 153.99955,428.49955 L 14.501791,288.9991 L 154.2509,149.25 L 294,9.5008945 L 433.7491,149.25 L 573.49821,288.9991 L 434.00045,428.49955 C 357.27668,505.2248 294.27648,568 294,568 C 293.72352,568 230.72332,505.2248 153.99955,428.49955 z"
     style="fill:#fdc509"
     sodipodi:nodetypes="cccccccsc" />
  <path
     id="path2412"
     d="M 153.99955,428.49955 L 14.501791,288.9991 L 154.2509,149.25 L 294,9.5008945 L 433.7491,149.25 L 573.49821,288.9991 L 434.00045,428.49955 C 357.27668,505.2248 294.27648,568 294,568 C 293.72352,568 230.72332,505.2248 153.99955,428.49955 z M 154.50136,334.99864 L 200.49457,288.99727 L 154.24729,242.74999 L 108,196.5027 L 61.752714,242.74999 L 15.505428,288.99727 L 61.498638,334.99864 C 86.794903,360.29939 107.72052,381 108,381 C 108.27948,381 129.2051,360.29939 154.50136,334.99864 z"
     style="fill:#a2cd55"
     sodipodi:nodetypes="cccccccsccccccccsc" />
  <path
     id="path2410"
     d="M 245.49609,519.81932 C 219.09824,493.31994 198.31854,472.2508 199.31897,472.999 C 200.97764,474.23948 205.20737,470.28992 247.31625,428.18104 L 293.49457,382.00273 L 247.74729,336.24733 C 222.58628,311.08186 202,289.90469 202,289.18695 C 202,288.46921 201.63482,288.10766 201.1885,288.3835 C 200.74217,288.65935 179.62012,268.09841 154.25062,242.69252 L 108.12424,196.5 L 200.99908,103 L 293.87391,9.5 L 433.68606,149.24955 L 573.49821,288.9991 L 434.00045,428.49955 C 357.27668,505.2248 294.27533,568 293.99744,568 C 293.71955,568 271.89395,546.31869 245.49609,519.81932 z"
     style="fill:#979c8f"
     sodipodi:nodetypes="cscccsscccccccsc" />
  <path
     id="path2408"
     d="M 247.3061,520.75 L 201.12027,474.5 L 293.50135,381.5 L 385.88242,288.5 L 339.6952,242.24996 L 293.50798,195.99992 L 247.00134,242.49866 L 200.4947,288.9974 L 154.32932,242.83203 L 108.16395,196.66665 L 200.29969,103.83332 C 250.97435,52.774996 292.90057,11 293.46906,11 C 294.03756,11 357.01368,73.512195 433.41599,149.91599 L 572.32928,288.83198 L 503.04129,358.79264 C 441.78892,420.63965 294.72159,567 293.8282,567 C 293.64325,567 272.70831,546.1875 247.3061,520.75 z"
     style="fill:#936bac"
     sodipodi:nodetypes="cccccccccccscccsc" />
  <path
     id="path2406"
     d="M 247.16338,520.66341 L 200.83483,474.32682 L 340.08571,335.08305 L 479.3366,195.83928 L 525.83295,242.33562 L 572.32929,288.83197 L 503.04129,358.79263 C 441.78892,420.63965 294.72159,567 293.8282,567 C 293.64325,567 272.64409,546.14853 247.16338,520.66341 z M 154.33096,242.83366 L 108.16395,196.66665 L 200.29969,103.83332 C 250.97435,52.774996 292.90179,11 293.47179,11 C 294.04179,11 315.20525,31.700766 340.5017,57.001703 L 386.49525,103.00341 L 293.49662,196.00204 L 200.49798,289.00068 L 154.33096,242.83366 z"
     style="fill:#69bf7a"
     sodipodi:nodetypes="cccccccsccccsccccc" />
  <path
     id="path2404"
     d="M 340.24588,428.74592 C 315.36065,403.85618 295,382.81777 295,381.9939 C 295,381.17002 336.51386,338.9839 387.25302,288.24696 L 479.50605,195.99798 L 525.99999,242.49999 L 572.49394,289.00201 L 479.999,381.501 C 429.12678,432.37545 387.05129,474 386.49791,474 C 385.94452,474 365.13111,453.63567 340.24588,428.74592 z M 154.33096,242.83366 L 108.16395,196.66665 L 200.29969,103.83332 C 250.97435,52.774996 292.90179,11 293.47179,11 C 294.04179,11 315.20525,31.700766 340.5017,57.001703 L 386.49525,103.00341 L 293.49662,196.00204 L 200.49798,289.00068 L 154.33096,242.83366 z"
     style="fill:#ef594e"
     sodipodi:nodetypes="cscccccsccccsccccc" />
  <path
     id="path2402"
     d="M 340.24588,428.74592 C 315.36065,403.85618 295,382.81777 295,381.9939 C 295,381.17002 336.51386,338.9839 387.25302,288.24696 L 479.50605,195.99798 L 525.99999,242.49999 L 572.49394,289.00201 L 479.999,381.501 C 429.12678,432.37545 387.05129,474 386.49791,474 C 385.94452,474 365.13111,453.63567 340.24588,428.74592 z M 154.24597,242.74601 L 107.99996,196.49198 L 154.49991,150.00009 L 200.99987,103.5082 L 246.06158,148.5041 C 270.84552,173.25184 291.51728,194.20508 291.99881,195.06685 C 292.68465,196.29424 282.86675,206.63956 246.68316,242.81688 L 200.49198,289.00004 L 154.24597,242.74601 z"
     style="fill:#e7891b"
     sodipodi:nodetypes="cscccccsccccccsccc" />
  <path
     id="path2400"
     d="M 340.24588,428.74592 C 315.36065,403.85618 295,382.81777 295,381.9939 C 295,381.17002 336.51386,338.9839 387.25302,288.24696 L 479.50605,195.99798 L 525.99999,242.49999 L 572.49394,289.00201 L 479.999,381.501 C 429.12678,432.37545 387.05129,474 386.49791,474 C 385.94452,474 365.13111,453.63567 340.24588,428.74592 z"
     style="fill:#0094d3"
     sodipodi:nodetypes="cscccccsc" />
  <path
     id="path2398"
     d="M 340.24588,428.74592 C 315.36065,403.85618 295,382.81685 295,381.99185 C 295,381.16685 315.58931,359.90618 340.75403,334.74592 L 386.50806,289 L 432.99998,335.49998 L 479.49189,381.99996 L 433.50002,427.99998 C 408.20449,453.29999 387.05446,474 386.49996,474 C 385.94545,474 365.13111,453.63567 340.24588,428.74592 z"
     style="fill:#01b4b2"
     sodipodi:nodetypes="cscccccsc" />
  <path
     id="path2396"
     d="M 1133,511.49503 C 1085.6659,505.02325 1044.6436,482.6243 1016.7127,448 C 984.24189,407.74774 971.17808,351.44184 982.05681,298.63072 C 993.16426,244.70925 1028.2834,199.70293 1077.3728,176.4803 C 1137.2079,148.1742 1209.6798,153.10386 1263.5804,189.14647 C 1275.877,197.36901 1293.144,213.49552 1302.5049,225.5 C 1343.0973,277.55576 1351.0455,352.21568 1322.5192,413.5 C 1297.2174,467.8568 1245.541,504.06844 1182.0262,511.94867 C 1170.7417,513.34872 1144.8024,513.10871 1133,511.49503 z M 1182.5,437.08225 C 1224.0969,426.31614 1252.0132,385.75967 1251.996,336.11901 C 1251.9759,278.2307 1216.7962,235.97181 1165.6382,232.38372 C 1107.3446,228.29515 1063.1022,277.12837 1066.3271,342 C 1068.8286,392.31931 1098.5066,430.29272 1141.7338,438.48406 C 1152.3842,440.50224 1171.8759,439.83198 1182.5,437.08225 z M 1590.5259,511.41189 C 1571.3357,508.4301 1555.0064,502.82356 1540.5,494.23592 C 1529.4038,487.66711 1512.1507,470.35719 1505.8781,459.5 C 1490.8783,433.53734 1486.6865,403.02298 1493.9341,372.5526 C 1503.884,330.72134 1539.0924,300.96653 1590.3441,291.07596 C 1608.1829,287.63343 1620.8801,287.0017 1672.25,287.00084 L 1722,287 L 1722,282.7101 C 1722,271.38294 1715.7479,257.66644 1706.3091,248.28604 C 1699.2299,241.25064 1686.2311,234.35004 1675,231.66516 C 1653.1573,226.4435 1625.7751,227.49006 1599,234.5699 C 1581.6486,239.15795 1556.4183,250.31967 1531.75,264.32089 L 1522,269.8548 L 1522,227.04403 C 1522,187.14673 1522.1191,184.19607 1523.75,183.68677 C 1524.7125,183.3862 1533.375,180.37345 1543,176.99179 C 1574.0156,166.0947 1597.3124,161.06794 1626.8621,158.8968 C 1686.4496,154.51866 1738.1124,169.30505 1768.4964,199.43393 C 1786.3234,217.11129 1796.6395,236.78262 1803.1428,265.5 L 1805.4075,275.5 L 1805.7392,391.75 L 1806.071,508 L 1764.0355,508 L 1722,508 L 1722,486.5 C 1722,474.675 1721.7104,465 1721.3564,465 C 1721.0025,465 1717.065,468.48987 1712.6064,472.75527 C 1689.335,495.01861 1664.6828,507.50921 1635.3084,511.92011 C 1625.5357,513.38759 1601.4845,513.11465 1590.5259,511.41189 z M 1662.5,436.56001 C 1677.0965,432.19449 1686.1429,426.85714 1696.5,416.5 C 1706.8624,406.13763 1712.2914,397.33223 1716.9674,383.30348 C 1719.9126,374.46785 1722.9818,358.11334 1722.9941,351.19015 L 1723,347.8803 L 1673.75,348.26915 C 1630.6028,348.60981 1623.6326,348.87917 1617.5,350.44284 C 1590.7704,357.25831 1577,373.43789 1577,398.0286 C 1577,415.15362 1584.3427,427.08272 1599.1309,433.983 C 1609.9877,439.04887 1616.2676,440.00675 1636,439.6066 C 1651.4832,439.29263 1654.5372,438.94152 1662.5,436.56001 z M 2199.3252,511.90453 C 2131.804,504.03701 2076.4052,461.79204 2053.6277,400.80115 C 2023.3923,319.8403 2053.6682,228.46283 2125.1408,184.96364 C 2150.002,169.83277 2177.0238,161.42035 2209.25,158.77874 C 2232.5426,156.86943 2259.9765,160.14257 2282.8786,167.5634 C 2296.7819,172.06842 2319.205,183.32323 2330.5,191.46596 C 2370.7632,220.49241 2396.0915,263.95612 2402.0158,314.18833 C 2403.5659,327.33157 2402.8149,355.98433 2400.6093,367.85388 C 2386.0723,446.08359 2327.8097,500.99887 2248.1988,511.50815 C 2236.1478,513.09897 2211.3054,513.30045 2199.3252,511.90453 z M 2246.1357,437.14656 C 2260.5474,433.3599 2275.1264,424.6826 2286.1368,413.33818 C 2298.2538,400.85363 2307.002,385.05553 2311.6828,367.20581 C 2314.8273,355.21466 2316.0396,328.75898 2314.0201,316.20037 C 2307.1791,273.65738 2280.737,242.97043 2243.5,234.35927 C 2232.0939,231.72159 2210.4334,231.94765 2199.8015,234.81533 C 2172.074,242.29419 2149.9854,261.99418 2138.1548,289.79575 C 2131.8624,304.5826 2128.3323,325.7963 2129.3972,342.42327 C 2132.6753,393.60651 2161.8224,430.12329 2206.1255,438.5517 C 2216.264,440.4805 2236.098,439.78393 2246.1357,437.14656 z M 2698.4382,511.46191 C 2643.6992,503.4689 2600.5248,472.08507 2576.0544,422.5 C 2553.2777,376.34689 2549.7499,323.58813 2566.0826,273.36958 C 2584.0829,218.02392 2626.7932,177.06782 2680.5,163.65153 C 2696.7237,159.59874 2705.486,158.5866 2724,158.62681 C 2738.0922,158.65742 2743.4928,159.08996 2751.7337,160.84802 C 2777.328,166.30818 2796.1126,176.5234 2818.0849,196.93044 L 2828,206.13926 L 2828,132.06963 L 2828,58 L 2871,58 L 2914,58 L 2914,283 L 2914,508 L 2872,508 L 2830,508 L 2830,486.5 C 2830,474.675 2829.7285,465 2829.3966,465 C 2829.0648,465 2824.4687,469.09273 2819.1832,474.09495 C 2802.3979,489.98046 2780.9198,502.66386 2761.7277,508.02393 C 2743.8822,513.00792 2718.477,514.38797 2698.4382,511.46191 z M 2761.1985,437.11382 C 2794.0143,428.56449 2818.8567,402.25013 2828.0512,366.29968 C 2834.7497,340.10908 2831.8144,308.69832 2820.4857,285.34017 C 2804.0456,251.44305 2773.6403,232.02627 2737,232.02627 C 2696.7284,232.02627 2664.2579,256.05779 2649.6823,296.65041 C 2644.3664,311.45511 2642.077,332.03694 2643.9147,348.5 C 2646.9994,376.13304 2655.8065,395.69186 2673,413.09222 C 2686.7214,426.97876 2701.54,435.03467 2719.7031,438.48176 C 2730.3146,440.49566 2750.8111,439.81997 2761.1985,437.11382 z M 621.66667,507.33333 C 621.3,506.96667 621,405.71667 621,282.33333 L 621,58 L 716.32632,58 C 816.61962,58 824.14908,58.26768 846,62.610035 C 881.54847,69.674455 908.49059,83.323438 930.5312,105.43386 C 942.28842,117.22831 949.69456,127.45577 956.05739,140.68407 C 977.13542,184.50517 976.80725,244.55904 955.25518,287.48475 C 948.10538,301.72515 941.55001,310.64729 929.09819,323.08553 C 902.72701,349.42791 869.31991,364.61203 823.5,371.08177 C 818.80112,371.74524 793.52691,372.41565 762.25,372.70643 L 709,373.20151 L 709,440.60075 L 709,508 L 665.66667,508 C 641.83333,508 622.03333,507.7 621.66667,507.33333 z M 812.61901,295.47393 C 854.43593,288.28828 878.50093,261.40565 880.70002,219.42171 C 883.01038,175.31356 860.25012,145.63967 816.5,135.72035 C 808.26401,133.85303 803.31918,133.64462 758.25,133.26535 L 709,132.85089 L 709,214.92545 L 709,297 L 756.36901,297 C 794.28814,297 805.50973,296.69556 812.61901,295.47393 z M 1373.6667,507.33333 C 1373.3,506.96667 1373,405.71667 1373,282.33333 L 1373,58 L 1416,58 L 1459,58 L 1459,283 L 1459,508 L 1416.6667,508 C 1393.3833,508 1374.0333,507.7 1373.6667,507.33333 z M 1856.6667,507.33333 C 1856.3,506.96667 1856,429.56667 1856,335.33333 L 1856,164 L 1898.5,164 L 1941,164 L 1941,185.61365 L 1941,207.2273 L 1950.25,198.4244 C 1977.7149,172.28705 2002.2738,161.83114 2039.7615,160.31507 L 2055.0229,159.69787 L 2054.7615,200.09894 L 2054.5,240.5 L 2039.5,241.16754 C 1976.2705,243.98142 1947.4668,266.45514 1942.0385,317.21059 C 1941.3996,323.18452 1941,361.7609 1941,417.46059 L 1941,508 L 1899.1667,508 C 1876.1583,508 1857.0333,507.7 1856.6667,507.33333 z M 2437,336 L 2437,164 L 2479.5,164 L 2522,164 L 2522,336 L 2522,508 L 2479.5,508 L 2437,508 L 2437,336 z M 2436,93 L 2436,58 L 2479.5,58 L 2523,58 L 2523,93 L 2523,128 L 2479.5,128 L 2436,128 L 2436,93 z"
     style="fill:#221e1f" />
</svg>
